<svg width="19" height="17" viewBox="0 0 19 17" fill="none" xmlns="http://www.w3.org/2000/svg">
<path d="M18.854 6.40648C18.7711 6.15855 18.6114 5.94022 18.3957 5.78011C18.1801 5.62 17.9186 5.52559 17.6455 5.50926L12.7289 5.18657L10.9079 0.818518C10.8084 0.578003 10.6354 0.371406 10.4111 0.225473C10.1867 0.0795413 9.92153 0.000993936 9.64974 0C9.37795 0.000993936 9.11274 0.0795413 8.88843 0.225473C8.66412 0.371406 8.49104 0.578003 8.39161 0.818518L6.53752 5.21018L1.65399 5.50926C1.38126 5.52665 1.1203 5.62145 0.904853 5.78141C0.689409 5.94137 0.529399 6.15911 0.445525 6.40648C0.359393 6.65764 0.35436 6.92758 0.431076 7.18149C0.507792 7.43539 0.662739 7.66163 0.875938 7.83102L4.63377 10.8532L3.51636 15.0324C3.43905 15.3151 3.45296 15.6134 3.55629 15.8885C3.65962 16.1636 3.84758 16.4028 4.09576 16.575C4.33665 16.7394 4.62365 16.8317 4.92003 16.8401C5.21641 16.8485 5.50869 16.7727 5.75947 16.6222L9.64147 14.2847H9.65802L13.838 16.7954C14.0524 16.9279 14.3024 16.9989 14.5581 17C14.7669 16.9984 14.9725 16.9514 15.1592 16.8624C15.3459 16.7735 15.5086 16.645 15.6349 16.4869C15.7612 16.3288 15.8477 16.1453 15.8878 15.9505C15.9278 15.7556 15.9203 15.5546 15.8659 15.363L14.6823 10.7903L18.4235 7.83102C18.6367 7.66163 18.7917 7.43539 18.8684 7.18149C18.9451 6.92758 18.9401 6.65764 18.854 6.40648Z" fill="#FFC14B"/>
</svg>
